<svg xmlns="http://www.w3.org/2000/svg" xmlns:xlink="http://www.w3.org/1999/xlink" id="Capa_1" x="0" y="0" version="1.1" viewBox="0 0 512 512" style="enable-background:new 0 0 512 512" xml:space="preserve"><circle style="fill:#393a59" cx="256" cy="256" r="256"/><path style="fill:#6a6577" d="M469.953,214.521c0,60.932-25.4,115.928-66.194,154.979c-13.511,12.941-28.719,24.123-45.25,33.193	c-30.584,16.794-65.722,26.346-103.074,26.346c-37.353,0-72.472-9.544-103.057-26.338c-4.93-2.697-9.736-5.586-14.412-8.659	c-11.032-7.223-21.356-15.454-30.847-24.543c-40.794-39.043-66.204-94.047-66.204-154.979c0-118.476,96.044-214.52,214.52-214.52	S469.953,96.045,469.953,214.521z"/><g><path style="fill:#393a59" d="M186.159,233.576c-11.975,2.226-22.413,10.7-26.582,23.071c-1.526,4.545-2.058,9.185-1.703,13.688 c0.115,1.609,0.355,3.197,0.69,4.765c-0.533-0.063-1.066-0.104-1.599-0.136c-0.46-0.021-0.92-0.042-1.369-0.052 c-11.588-0.303-22.747,4.232-30.845,12.288c-2.675,2.675-5.026,5.726-6.928,9.122c-1.285,2.278-2.382,4.723-3.239,7.293 c-3.877,11.536-2.487,23.573,2.884,33.489l-0.46,0.23c-4.671-10.271-13.406-18.651-24.952-22.528 c-18.422-6.186-38.118,1.076-48.431,16.488c-0.293,0.449-0.585,0.899-0.867,1.358c-3.939-4.618-9.143-8.255-15.308-10.334 c-6.363-2.132-12.915-2.32-19.007-0.888c-1.254-4.733-2.361-9.509-3.344-14.346l20.292-37.71l7.659,7.774 c9.446,9.592,23.97,12.027,36.018,6.029L59.037,262.99l6.165,1.4c10.397,2.382,21.023-2.905,25.412-12.622L93.215,246 l10.031,20.198c8.923-4.441,14.984-12.737,16.739-22.152c0.616-3.302,0.711-6.75,0.199-10.209l-1.567-10.804l4.765,0.742 L186.159,233.576z"/><path style="fill:#393a59" d="M472.886,320.262c-0.629,2.775-4.416,3.193-5.62,0.615c-3.543-7.577-9.82-13.9-18.16-17.353 c-4.432-1.834-9.025-2.681-13.538-2.636c-1.616,0.008-3.216,0.136-4.798,0.371c0.092-0.531,0.168-1.06,0.237-1.592 c0.057-0.456,0.11-0.91,0.153-1.36c1.089-11.544-2.679-22.988-10.172-31.607c-2.476-2.858-5.366-5.402-8.626-7.536 c-2.189-1.44-4.548-2.694-7.058-3.731c-11.247-4.649-23.343-4.074-33.604,0.609l-0.2-0.481 c10.563-3.955,19.516-12.106,24.168-23.356c7.429-17.961,1.525-38.105-13.153-49.44c-0.425-0.327-0.854-0.647-1.295-0.957 c4.873-3.62,8.86-8.562,11.351-14.574c3.448-8.342,3.405-17.252,0.545-25.112c-0.973-2.675,1.997-5.059,4.406-3.544l44.58,28.043 c1.706,1.074,1.886,3.493,0.356,4.807l-5.199,4.466c-9.359,8.034-13.009,20.741-9.585,32.374c0.505,1.717,2.381,2.626,4.034,1.94 l12.074-5.008c2.334-0.969,4.744,1.211,4.016,3.63l-0.002,0.007c-3.075,10.212,1.472,21.174,10.872,26.211l0,0 c2.229,1.192,2.069,4.439-0.265,5.407l-12.071,5.007c-1.657,0.688-2.33,2.662-1.469,4.237c4.169,7.62,11.288,13.059,19.507,15.177 c3.256,0.844,6.688,1.165,10.173,0.897l6.836-0.526c2.009-0.155,3.596,1.68,3.15,3.647l-0.169,0.746L472.886,320.262z"/><path style="fill:#393a59" d="M211.197,32.54c2.603,1.15,2.286,4.947-0.475,5.634c-8.116,2.023-15.527,6.968-20.518,14.49 c-2.65,3.998-4.363,8.342-5.187,12.779c-0.302,1.588-0.485,3.183-0.558,4.78c-0.503-0.192-1.008-0.368-1.517-0.538 c-0.437-0.143-0.872-0.282-1.305-0.411c-11.12-3.285-23.074-1.786-32.972,3.913c-3.28,1.882-6.332,4.229-9.052,7.018 c-1.833,1.872-3.517,3.947-5.018,6.21c-6.722,10.145-8.481,22.127-5.856,33.095l-0.51,0.103 c-1.853-11.125-8.133-21.477-18.279-28.204c-16.199-10.739-37.103-8.813-51.046,3.415c-0.402,0.355-0.799,0.714-1.188,1.087 c-2.616-5.478-6.701-10.339-12.124-13.938c-7.524-4.985-16.277-6.655-24.54-5.358c-2.812,0.441-4.582-2.932-2.632-5.005 l36.082-38.362c1.381-1.469,3.79-1.181,4.786,0.573l3.384,5.96c6.088,10.728,17.857,16.75,29.931,15.623 c1.782-0.166,3.034-1.833,2.679-3.586l-2.597-12.811c-0.502-2.476,2.099-4.423,4.334-3.243l0.007,0.004 c9.431,4.979,21.063,2.622,27.811-5.636l0,0c1.598-1.958,4.753-1.179,5.256,1.299l2.596,12.807 c0.356,1.759,2.165,2.798,3.876,2.256c8.28-2.628,14.984-8.57,18.64-16.23c1.453-3.033,2.428-6.34,2.834-9.812l0.797-6.81 c0.234-2.002,2.34-3.206,4.184-2.392l0.7,0.309L211.197,32.54z"/></g><path style="fill:#282942" d="M432.995,440.947c-16.123,15.444-34.273,28.787-54,39.612C342.497,500.6,300.565,512,255.99,512	s-86.486-11.389-122.984-31.431c-19.728-10.815-37.878-24.168-54.011-39.623c16.374-41.566,56.195-71.325,103.173-72.997	c1.379-0.063,2.779-0.094,4.18-0.094h139.295c1.4,0,2.8,0.031,4.18,0.094C376.801,369.622,416.622,399.381,432.995,440.947z"/><path style="fill:#d863bb" d="M255.99,448.637c0,0,177.292-128.708,170.921-140.293c-9.517-17.313-23.649-29.124-37.607-37.138	c-23.432-13.446-46.411-16.174-46.411-16.174L201.766,374.811L255.99,448.637z"/><path style="fill:#282942" d="M255.99,448.637c0,0,177.292-128.708,170.921-140.293c-9.517-17.313-23.649-29.124-37.607-37.138	c14.271,15.792,27.977,39.815,6.892,60.89c-3.406,3.406-7.154,5.713-11.146,7.101c-13.939,4.847-26.906,12.126-37.591,22.305	L255.99,448.637z"/><path style="fill:#d863bb" d="M255.99,448.637c0,0-177.292-128.708-170.921-140.293c9.517-17.313,23.649-29.124,37.607-37.138	c23.432-13.446,46.411-16.174,46.411-16.174L255.99,448.637z"/><g><path style="fill:#ccc" d="M402.659,149.703l-48.834,28.801v58.586c0,13.485,10.932,24.417,24.417,24.417l0,0 c13.485,0,24.417-10.932,24.417-24.417L402.659,149.703L402.659,149.703z"/><path style="fill:#ccc" d="M109.318,149.703l48.834,28.801v58.586c0,13.485-10.932,24.417-24.417,24.417l0,0 c-13.485,0-24.417-10.932-24.417-24.417V149.703z"/><path style="fill:#ccc" d="M310.221,308.199v58.253c0,29.949-24.278,54.227-54.227,54.227l0,0 c-29.949,0-54.227-24.278-54.227-54.227v-58.253H310.221z"/></g><path style="fill:#ededed" d="M376.728,145.053v102.379c0,33.343-13.511,63.53-35.349,85.368	c-21.87,21.87-52.046,35.37-85.389,35.37c-66.685,0-120.738-54.053-120.738-120.738V145.053c0-5.507,0.366-10.94,1.087-16.248	c2.215-16.52,7.784-31.974,15.997-45.672c21.076-35.234,186.243-35.234,207.308,0c8.213,13.699,13.782,29.153,15.997,45.672	C376.362,134.113,376.728,139.546,376.728,145.053z"/><path style="fill:#ccc" d="M170.231,247.433V145.055c0-60.739,44.86-110.987,103.251-119.463	c-5.712-0.83-11.549-1.277-17.493-1.277c-66.681,0-120.74,54.059-120.74,120.74v102.378c0,66.681,54.059,120.74,120.74,120.74	c5.943,0,11.78-0.448,17.494-1.277C215.091,358.42,170.231,308.172,170.231,247.433z"/><g><path style="fill:#393a59" d="M316.094,223.664v-23.14c0-6.035-4.892-10.928-10.928-10.928l0,0 c-6.035,0-10.928,4.892-10.928,10.928v23.14c0,6.035,4.892,10.928,10.928,10.928l0,0 C311.202,234.591,316.094,229.699,316.094,223.664z"/><path style="fill:#393a59" d="M195.892,200.523v23.14c0,6.035,4.892,10.928,10.928,10.928l0,0c6.035,0,10.928-4.892,10.928-10.928 v-23.14c0-6.035-4.892-10.928-10.928-10.928l0,0C200.784,189.596,195.892,194.488,195.892,200.523z"/></g><g><circle style="fill:#7f7d89" cx="308.955" cy="204.581" r="7.14"/><circle style="fill:#7f7d89" cx="210.61" cy="204.581" r="7.14"/><circle style="fill:#7f7d89" cx="300.972" cy="221.539" r="4.105"/><circle style="fill:#7f7d89" cx="202.637" cy="221.539" r="4.105"/></g><g><path style="fill:#282942" d="M161.949,128.805c0,1.261,0.049,2.511,0.147,3.748c1.162,14.771-4.176,29.397-15.378,39.096 c-3.501,3.032-7.346,5.679-11.467,7.876v-34.471c0-22.643,6.228-43.813,17.084-61.921c6.562,7.304,11.41,16.175,13.928,25.987 C163.495,115.106,161.949,121.783,161.949,128.805z"/><path style="fill:#282942" d="M376.728,145.053v34.471c-4.121-2.197-7.965-4.844-11.467-7.876 c-11.2-9.699-16.54-24.325-15.378-39.096c0.097-1.237,0.147-2.487,0.147-3.748c0-7.022-1.546-13.699-4.315-19.686 c2.518-9.812,7.367-18.683,13.928-25.987C370.5,101.24,376.728,122.41,376.728,145.053z"/></g><g><rect x="182.185" y="176.161" transform="matrix(-0.9327 -0.3606 0.3606 -0.9327 329.4594 440.9586)" style="fill:#ededed" width="47.364" height="27.167"/><rect x="282.448" y="176.171" transform="matrix(0.9327 -0.3606 0.3606 0.9327 -47.8298 123.1597)" style="fill:#ededed" width="47.364" height="27.167"/></g><path style="fill:#393a59" d="M313.114,257.672c0,19.498-9.77,36.718-24.691,47.02c-9.216,6.374-20.386,10.104-32.434,10.104	s-23.218-3.73-32.434-10.104c-14.921-10.303-24.691-27.523-24.691-47.02c5.287,2.644,10.721,4.901,16.248,6.771	c5.789,1.954,11.682,3.49,17.627,4.587c7.68,1.421,15.464,2.132,23.249,2.132c7.784,0,15.569-0.711,23.249-2.132	c5.945-1.097,11.839-2.633,17.627-4.587C302.393,262.572,307.827,260.315,313.114,257.672z"/><path style="fill:#e87bc2" d="M288.423,304.692c-9.216,6.374-20.386,10.104-32.434,10.104s-23.218-3.73-32.434-10.104	c9.216-6.374,20.386-10.104,32.434-10.104C268.037,294.588,279.207,298.318,288.423,304.692z"/><path style="fill:#ccc" d="M323.306,169.904H188.673l37.765,28.32h4.165c7.278,0,13.178,5.899,13.178,13.178v20.435	c0,6.725,5.261,12.493,11.984,12.616c6.849,0.125,12.442-5.39,12.442-12.211v-20.84c0-7.278,5.9-13.178,13.178-13.178h4.157	L323.306,169.904z"/><g><path style="fill:#f0f0f0" d="M296.866,264.443c-0.627,4.807-1.714,9.352-2.905,13.333c-2.675,8.944-5.925,15.078-5.925,15.078 l-5.611-15.193l-3.187-8.631C285.184,267.933,291.077,266.397,296.866,264.443z"/><path style="fill:#f0f0f0" d="M232.741,269.03l-3.187,8.631l-5.611,15.193c0,0-3.25-6.134-5.925-15.078 c-1.191-3.981-2.278-8.526-2.905-13.333C220.902,266.397,226.795,267.933,232.741,269.03z"/></g><g><path style="fill:#393a59" d="M169.618,177.742l10.334-16.078c1.844-2.869,5.666-3.701,8.536-1.857l42.28,27.176 c5.771,3.709,2.098,12.656-4.615,11.24l-52.614-11.098C169.308,186.233,167.28,181.381,169.618,177.742z"/><path style="fill:#393a59" d="M342.361,177.742l-10.334-16.078c-1.844-2.869-5.666-3.701-8.536-1.857l-42.28,27.176 c-5.771,3.709-2.098,12.656,4.614,11.24l52.614-11.098C342.671,186.233,344.699,181.381,342.361,177.742z"/></g><path style="fill:#ccc" d="M269.225,335.694h-26.47c-2.693,0-4.877-2.183-4.877-4.877l0,0c0-2.693,2.183-4.877,4.877-4.877	h26.47c2.693,0,4.877,2.183,4.877,4.877l0,0C274.101,333.512,271.918,335.694,269.225,335.694z"/><g><path style="fill:#282942" d="M359.643,83.132c-21.065-35.234-59.601-58.817-103.654-58.817 c-44.042,0-82.578,23.583-103.654,58.817c-8.213,13.699-13.782,29.153-15.997,45.672h25.61c0-25.966,21.055-47.02,47.02-47.02 c0.631,0,1.26,0.013,1.885,0.038c22.046,0.87,39.219,19.546,39.219,41.61v6.424c0,3.267,2.649,5.916,5.916,5.916l0,0 c3.267,0,5.916-2.649,5.916-5.916v-6.424c0-22.064,17.173-40.74,39.219-41.61c0.625-0.025,1.254-0.038,1.885-0.038 c25.966,0,47.02,21.055,47.02,47.02h25.61C373.426,112.285,367.856,96.831,359.643,83.132z"/><path style="fill:#282942" d="M255.99,448.637c0,0-177.292-128.708-170.921-140.293c9.517-17.313,23.649-29.124,37.607-37.138 c-14.271,15.792-27.977,39.815-6.892,60.89c3.406,3.406,7.154,5.713,11.146,7.101c13.939,4.847,26.906,12.126,37.591,22.305 L255.99,448.637z"/></g><g><path style="fill:#e87bc2" d="M298.436,441.095l-39.554,14.658c-1.863,0.691-3.912,0.691-5.775,0l-39.554-14.658 c-5.427-2.011-11.197,2.004-11.197,7.792v24.39c0,5.788,5.77,9.803,11.197,7.792l39.554-14.658c1.863-0.691,3.912-0.691,5.775,0 l39.554,14.658c5.427,2.011,11.197-2.004,11.197-7.792v-24.39C309.633,443.099,303.864,439.084,298.436,441.095z"/><path style="fill:#e87bc2" d="M293.961,277.776c-2.675,8.944-5.925,15.078-5.925,15.078l-5.611-15.193 c1.745-0.648,3.636-1.003,5.611-1.003C290.126,276.658,292.122,277.055,293.961,277.776z"/><path style="fill:#e87bc2" d="M229.554,277.661l-5.611,15.193c0,0-3.25-6.134-5.925-15.078c1.839-0.721,3.835-1.118,5.925-1.118 C225.917,276.658,227.809,277.013,229.554,277.661z"/></g></svg>